<?xml version="1.0" encoding="UTF-8" standalone="no"?>
<!-- Created with Inkscape (http://www.inkscape.org/) -->

<svg
   xmlns:dc="http://purl.org/dc/elements/1.1/"
   xmlns:cc="http://creativecommons.org/ns#"
   xmlns:rdf="http://www.w3.org/1999/02/22-rdf-syntax-ns#"
   xmlns:svg="http://www.w3.org/2000/svg"
   xmlns="http://www.w3.org/2000/svg"
   xmlns:sodipodi="http://sodipodi.sourceforge.net/DTD/sodipodi-0.dtd"
   xmlns:inkscape="http://www.inkscape.org/namespaces/inkscape"
   width="210mm"
   height="297mm"
   viewBox="0 0 210 297"
   version="1.1"
   id="svg8"
   inkscape:version="0.92.4 (5da689c313, 2019-01-14)"
   sodipodi:docname="logo.svg">
  <defs
     id="defs2" />
  <sodipodi:namedview
     id="base"
     pagecolor="#ffffff"
     bordercolor="#666666"
     borderopacity="1.0"
     inkscape:pageopacity="0.0"
     inkscape:pageshadow="2"
     inkscape:zoom="1.6840663"
     inkscape:cx="483.61238"
     inkscape:cy="1313.4027"
     inkscape:document-units="mm"
     inkscape:current-layer="layer1"
     showgrid="false"
     inkscape:window-width="3840"
     inkscape:window-height="2066"
     inkscape:window-x="-11"
     inkscape:window-y="-11"
     inkscape:window-maximized="1" />
  <metadata
     id="metadata5">
    <rdf:RDF>
      <cc:Work
         rdf:about="">
        <dc:format>image/svg+xml</dc:format>
        <dc:type
           rdf:resource="http://purl.org/dc/dcmitype/StillImage" />
        <dc:title></dc:title>
      </cc:Work>
    </rdf:RDF>
  </metadata>
  <g
     inkscape:label="Layer 1"
     inkscape:groupmode="layer"
     id="layer1">
    <path
       style="font-style:normal;font-variant:normal;font-weight:normal;font-stretch:normal;font-size:10.58333302px;line-height:1.25;font-family:Calibri;-inkscape-font-specification:Calibri;letter-spacing:0px;word-spacing:0px;fill:#000000;fill-opacity:1;stroke:none;stroke-width:0.41777268"
       d="m 5.683183,0.70037784 c -0.114234,0 -0.21215,0.005 -0.293746,0.0163 -0.0816,0.005 -0.149593,0.0218 -0.203991,0.049 -0.04896,0.0218 -0.09248,0.0544 -0.130554,0.0979 -0.03264,0.0381 -0.05984,0.0925 -0.0816,0.16318996 L 0.03672,14.563588 c -0.03264,0.0707 -0.04352,0.13055 -0.03264,0.17951 0.01088,0.0544 0.0408,0.0979 0.08976,0.13055 0.04896,0.0381 0.116954,0.0653 0.20399,0.0816 0.09248,0.0217 0.206711,0.0326 0.342704,0.0326 0.114235,0 0.209431,-0.005 0.285587,-0.0163 0.0816,-0.0109 0.149593,-0.0272 0.203991,-0.049 0.0544,-0.0218 0.09792,-0.0544 0.130554,-0.0979 0.03808,-0.0381 0.068,-0.0925 0.08976,-0.16319 L 6.286996,1.1246278 c 0.0272,-0.0707 0.03536,-0.13327996 0.02448,-0.18766996 -0.01088,-0.0544 -0.0408,-0.0979 -0.08975,-0.13056 -0.04896,-0.0326 -0.116955,-0.0571 -0.203991,-0.0734 -0.08704,-0.0218 -0.198551,-0.0326 -0.334545,-0.0326 z m 6.462423,0 c -0.114236,0 -0.21215,0.005 -0.293748,0.0163 -0.0816,0.005 -0.149593,0.0218 -0.20399,0.049 -0.04896,0.0218 -0.09248,0.0544 -0.130554,0.0979 -0.03264,0.0381 -0.05984,0.0925 -0.0816,0.16318996 L 6.499146,14.563578 c -0.03264,0.0707 -0.04352,0.13055 -0.03264,0.17951 0.01088,0.0544 0.0408,0.0979 0.08976,0.13055 0.04896,0.0381 0.116955,0.0653 0.203991,0.0816 0.09248,0.0217 0.20671,0.0326 0.342704,0.0326 0.114234,0 0.20943,-0.005 0.285586,-0.0163 0.0816,-0.0109 0.149594,-0.0272 0.203991,-0.049 0.0544,-0.0218 0.09792,-0.0544 0.130554,-0.0979 0.03808,-0.0381 0.068,-0.0925 0.08976,-0.16319 L 12.749417,1.1246278 c 0.0272,-0.0707 0.03536,-0.13327996 0.02448,-0.18766996 -0.01088,-0.0544 -0.0408,-0.0979 -0.08975,-0.13056 -0.04896,-0.0326 -0.116956,-0.0571 -0.20399,-0.0734 -0.08704,-0.0218 -0.198551,-0.0326 -0.334544,-0.0326 z"
       id="text3715"
       inkscape:connector-curvature="0" />
  </g>
</svg>
